<?xml version="1.0" standalone="no"?>
<!DOCTYPE svg PUBLIC "-//W3C//DTD SVG 20010904//EN"
 "http://www.w3.org/TR/2001/REC-SVG-20010904/DTD/svg10.dtd">
<svg version="1.0" xmlns="http://www.w3.org/2000/svg"
 width="348.000000pt" height="129.000000pt" viewBox="0 0 348.000000 129.000000"
 preserveAspectRatio="xMidYMid meet">

<g transform="translate(0.000000,129.000000) scale(0.100000,-0.100000)"
fill="#000000" stroke="none">
<path d="M1895 1268 c-11 -5 -73 -71 -137 -146 l-117 -135 19 -27 19 -27 -25
-12 c-24 -11 -31 -6 -120 75 -92 85 -95 86 -124 74 -16 -7 -30 -16 -30 -21 0
-5 -5 -9 -11 -9 -6 0 -8 9 -4 20 6 18 3 19 -17 11 -13 -5 -77 -25 -143 -46
-66 -20 -142 -47 -169 -58 -47 -20 -48 -21 -42 -56 3 -20 6 -58 6 -84 l0 -49
30 7 c26 6 30 4 30 -14 0 -18 -6 -21 -47 -21 -30 0 -68 -10 -100 -25 l-53 -24
0 57 c-1 209 -228 319 -511 247 -88 -22 -255 -105 -306 -151 l-43 -39 78 -127
c80 -132 77 -130 128 -111 5 2 64 -121 130 -273 65 -151 124 -278 131 -281 18
-7 237 64 266 87 l25 20 -17 67 c-10 38 -21 79 -26 93 -6 20 -1 17 29 -17 72
-82 204 -98 304 -36 l51 31 6 -40 7 -40 57 6 c97 12 175 29 199 44 19 13 22
23 22 83 0 38 2 69 5 69 3 0 96 -46 207 -101 191 -96 204 -101 228 -87 23 13
25 20 30 112 l5 97 50 18 c28 10 57 21 66 25 15 6 16 2 8 -36 -4 -24 -8 -48
-9 -53 0 -17 253 -50 278 -36 17 9 23 7 40 -15 16 -23 22 -25 40 -15 19 10 21
8 24 -26 l3 -38 145 -26 c135 -24 147 -25 173 -10 22 13 27 21 25 49 -3 32 0
35 39 47 l41 12 -5 -52 -6 -52 64 -7 c130 -14 129 -14 129 -57 l0 -38 99 -31
c152 -47 130 -78 283 385 71 213 127 390 125 391 -2 2 -59 18 -128 35 -95 24
-130 29 -151 21 -22 -8 -27 -7 -31 8 -3 13 -31 22 -113 39 -60 12 -122 27
-138 32 -39 12 -70 11 -101 -3 -24 -11 -25 -15 -25 -95 l0 -83 -33 0 c-19 0
-56 -11 -82 -25 -27 -13 -50 -23 -51 -22 -1 1 -9 54 -18 117 -10 63 -20 130
-23 148 l-5 32 -112 0 c-82 -1 -116 -5 -130 -15 -14 -11 -46 -15 -109 -15 -99
0 -147 -18 -147 -55 0 -43 -15 -48 -55 -21 -21 14 -41 26 -44 26 -3 1 -28 7
-56 14 l-50 13 80 41 c44 23 86 45 93 50 11 7 0 30 -48 101 -34 50 -67 91 -73
90 -7 0 -21 -5 -32 -11z m64 -114 c18 -25 32 -47 30 -48 -2 -2 -46 -25 -98
-51 -125 -62 -134 -51 -41 59 40 47 73 86 74 86 2 0 17 -21 35 -46z m576 -176
c5 -25 37 -247 38 -263 0 -6 -12 -28 -26 -51 -71 -106 -45 -252 56 -319 42
-29 51 -61 15 -52 -13 3 -49 9 -80 12 -32 4 -58 10 -58 14 -1 22 -39 253 -43
257 -3 3 -15 -24 -28 -60 -13 -36 -27 -66 -30 -66 -4 0 -24 38 -45 85 -21 47
-41 85 -44 85 -3 0 -12 -48 -20 -106 l-13 -106 -31 6 c-17 3 -51 8 -75 12
l-43 7 7 61 c5 51 12 67 41 96 l34 36 -24 24 -23 25 25 143 25 142 77 0 77 0
13 -90 c7 -49 16 -90 19 -90 4 0 14 45 24 101 9 55 19 105 23 110 3 5 27 9 54
9 43 0 50 -3 55 -22z m-1225 -89 l5 -94 26 35 c14 19 45 62 69 95 24 33 45 62
47 64 5 6 133 -121 133 -132 0 -4 -40 -50 -90 -101 -49 -51 -90 -95 -90 -98 0
-3 37 -21 83 -39 64 -26 93 -44 132 -85 45 -46 82 -67 163 -90 12 -3 19 -124
7 -124 -3 0 -104 49 -225 110 -121 60 -222 110 -225 110 -3 0 -5 -53 -5 -119
l0 -118 -59 -10 c-56 -9 -60 -8 -65 11 -10 38 -6 87 10 117 36 70 27 172 -20
242 -20 29 -26 54 -32 132 l-7 97 -28 -6 c-26 -5 -29 -3 -29 22 0 25 5 29 88
53 48 15 92 26 97 24 6 -1 12 -44 15 -96z m-642 51 c122 -54 163 -165 107
-284 -26 -55 -87 -126 -139 -163 l-29 -20 37 -142 c21 -79 35 -148 33 -155 -4
-11 -115 -52 -122 -44 -1 2 -60 133 -131 291 -109 245 -131 287 -146 283 -10
-3 -26 -8 -35 -11 -14 -5 -28 11 -60 65 -24 39 -43 75 -43 80 0 24 155 93 260
116 86 18 207 11 268 -16z m1309 -35 c86 -43 86 -46 7 -128 -38 -40 -83 -87
-99 -106 l-30 -34 35 7 c19 3 53 19 76 35 l41 28 48 -45 48 -46 -29 -23 c-75
-62 -196 -100 -279 -88 -167 26 -237 217 -123 341 76 82 207 107 305 59z
m1041 -4 c46 -10 87 -22 91 -27 4 -5 21 -72 36 -149 16 -77 31 -143 35 -148 3
-4 21 55 39 131 l33 139 77 -15 c42 -8 77 -16 79 -17 2 -2 -47 -153 -108 -338
l-111 -335 -50 13 c-28 8 -53 16 -56 18 -2 3 -7 92 -11 198 l-7 194 -25 -148
-24 -149 -56 7 c-30 4 -58 9 -62 11 -16 10 7 91 35 123 46 53 67 108 67 176 0
60 -25 135 -50 150 -7 4 -10 28 -9 63 2 49 0 56 -19 63 -15 6 -22 17 -22 34 0
30 7 31 118 6z m-131 -179 c75 -53 85 -170 22 -258 -73 -101 -201 -133 -283
-70 -47 35 -66 74 -66 132 0 84 49 157 135 204 53 28 146 25 192 -8z m-1327
-32 c0 -44 -1 -45 -33 -29 -32 17 -32 17 -7 44 32 34 40 31 40 -15z m-445 -9
c70 -40 98 -122 71 -208 -33 -104 -125 -176 -226 -176 -68 0 -112 22 -144 71
-35 53 -40 93 -21 157 42 144 204 224 320 156z"/>
<path d="M539 777 l-26 -12 31 -102 c17 -56 35 -105 38 -109 11 -10 64 33 87
70 38 60 18 135 -40 155 -40 14 -57 13 -90 -2z m87 -92 c6 -25 -3 -65 -15 -65
-9 0 -41 97 -34 104 11 10 43 -15 49 -39z"/>
<path d="M1778 824 c-35 -19 -48 -43 -48 -91 0 -40 23 -84 43 -82 7 0 42 36
80 79 l67 79 -22 15 c-28 20 -84 20 -120 0z m73 -41 c-5 -10 -25 -33 -45 -52
-32 -31 -36 -32 -42 -16 -15 39 22 74 89 84 4 0 3 -7 -2 -16z"/>
<path d="M2698 681 c-44 -39 -44 -93 1 -133 69 -62 172 -13 171 80 l-1 27 -20
-27 c-27 -36 -80 -39 -103 -6 -21 30 -20 44 4 68 20 20 20 20 0 20 -11 0 -34
-13 -52 -29z"/>
<path d="M958 644 c-85 -45 -55 -160 44 -171 42 -5 50 -3 78 25 23 23 30 40
30 68 l0 37 -21 -27 c-15 -19 -30 -26 -54 -26 -63 0 -82 68 -27 99 15 10 15
10 -3 10 -11 0 -32 -6 -47 -15z"/>
<path d="M3281 124 c0 -11 3 -14 6 -6 3 7 2 16 -1 19 -3 4 -6 -2 -5 -13z"/>
<path d="M3301 128 c-1 -24 14 -31 29 -13 9 10 9 15 1 15 -6 0 -11 -6 -12 -12
0 -7 -4 -4 -9 7 -7 16 -9 17 -9 3z"/>
</g>
</svg>
